<?xml version="1.0" encoding="utf-8"?>
<!-- Generator: Adobe Illustrator 16.0.4, SVG Export Plug-In . SVG Version: 6.00 Build 0)  -->
<!DOCTYPE svg PUBLIC "-//W3C//DTD SVG 1.1//EN" "http://www.w3.org/Graphics/SVG/1.1/DTD/svg11.dtd">
<svg version="1.1" id="Layer_1" xmlns="http://www.w3.org/2000/svg" xmlns:xlink="http://www.w3.org/1999/xlink" x="0px" y="0px"
	 width="300px" height="200px" viewBox="0 0 300 200" enable-background="new 0 0 300 200" xml:space="preserve">
<g>
	<rect x="7.016" y="96.582" fill="none" width="287.583" height="92.969"/>
	<path d="M15.055,185.381V96.584h9v39.238h31.559V96.584h9.12v88.796h-9.12v-41.278H24.055v41.278L15.055,185.381L15.055,185.381z"
		/>
	<path d="M77.214,140.863c0-26.039,11.04-45.839,32.279-45.839c21.359,0,32.278,19.8,32.278,45.958c0,22.799-9,45.957-32.278,45.957
		c-21.239,0-32.279-19.799-32.279-45.957V140.863z M86.454,141.104c0,24.238,8.759,37.68,23.039,37.68
		c14.279,0,23.159-13.439,23.159-37.801c0-24.358-8.879-37.799-23.159-37.799c-14.28,0-23.039,13.439-23.039,37.799V141.104z"/>
	<path d="M150.773,140.863c0-26.039,11.039-45.839,32.277-45.839c21.359,0,32.279,19.8,32.279,45.958
		c0,22.799-9,45.957-32.279,45.957c-21.238,0-32.277-19.799-32.277-45.957V140.863z M160.014,141.104
		c0,24.238,8.76,37.68,23.038,37.68c14.28,0,23.159-13.439,23.159-37.801c0-24.358-8.879-37.799-23.159-37.799
		c-14.278,0-23.038,13.439-23.038,37.799V141.104z"/>
	<path d="M227.932,96.584h20.399c11.879,0,22.319,3,29.039,12.839c4.92,7.199,7.8,17.64,7.8,31.56
		c0,33.959-16.561,44.397-36.6,44.397h-20.639V96.584L227.932,96.584z M236.932,177.102h10.92c20.879,0,28.199-13.318,28.199-36.119
		c0-12.357-1.92-21.236-6.24-27.117c-4.438-6.239-11.64-8.999-22.199-8.999h-10.68V177.102z"/>
</g>
<g>
	<rect x="7.016" y="12.45" fill="none" width="287.583" height="80.133"/>
	<path fill="#052B36" d="M57.175,87.02V12.451h3.09v76.218h-5.459l-37.491-74.57v74.57h-3.09V12.451h5.562L57.175,87.02z"/>
	<path fill="#052B36" d="M74.686,12.451h3.09v76.218h-3.09V12.451z"/>
	<path fill="#052B36" d="M136.484,66.627c0,10.712-6.695,23.38-21.629,23.38c-15.964,0-25.75-14.213-25.75-39.448
		c0-22.659,7.725-39.448,25.75-39.448c14.625,0,21.629,13.184,21.629,25.646h-2.781c0-7.828-3.914-22.866-18.848-22.866
		c-16.995,0-22.659,16.583-22.659,37.8c0,23.586,9.476,35.534,22.659,35.534c13.699,0,18.437-10.917,18.848-20.599L136.484,66.627
		L136.484,66.627z"/>
	<path fill="#052B36" d="M142.665,50.457c0-21.526,9.476-39.345,27.5-39.345s27.5,17.818,27.5,39.448
		c0,16.995-6.798,39.448-27.5,39.448c-18.024,0-27.5-17.818-27.5-39.448V50.457z M145.754,50.663
		c0,22.351,9.682,36.563,24.41,36.563s24.41-14.213,24.41-36.667c0-22.453-9.682-36.667-24.41-36.667s-24.41,14.214-24.41,36.667
		V50.663z"/>
	<path fill="#052B36" d="M208.996,12.451h3.09v73.437h26.882v2.781h-29.972V12.451z"/>
	<path fill="#052B36" d="M247.105,12.451h35.019v2.781h-31.929v33.68h31.929v2.781h-31.929v34.195h31.929v2.781h-35.019V12.451
		L247.105,12.451z"/>
</g>
</svg>
